<svg id="Capa_1" enable-background="new 0 0 512 512" height="512" viewBox="0 0 512 512" width="512" xmlns="http://www.w3.org/2000/svg"><g><path d="m278.662 30.541h-45.325c-18.081 0-32.79 14.687-32.79 32.739s14.709 32.739 32.79 32.739h12.648v39.75c0 5.522 4.477 10 10 10s10-4.478 10-10v-39.749h12.676c18.081 0 32.791-14.687 32.791-32.739s-14.709-32.74-32.79-32.74zm0 45.479h-45.325c-7.052 0-12.79-5.715-12.79-12.739s5.738-12.739 12.79-12.739h45.325c7.053 0 12.791 5.715 12.791 12.739s-5.738 12.739-12.791 12.739z" fill="#020288"/><g><path clip-rule="evenodd" d="m72.418 345.713h367.136 30.585c0-136.861-106.099-209.944-214.153-209.944s-214.154 73.083-214.154 209.944z" fill="#a4fcc4" fill-rule="evenodd"/></g><path d="m467.786 393.213h-18.232v-37.5h50.292c5.522 0 10-4.478 10-10s-4.478-10-10-10h-487.692c-5.523 0-10 4.478-10 10s4.477 10 10 10h50.263v37.5h-18.232c-24.364 0-44.185 19.787-44.185 44.108v34.138c0 5.522 4.477 10 10 10h492c5.522 0 10-4.478 10-10v-34.138c0-24.321-19.834-44.108-44.214-44.108zm-385.369-37.5h347.136v37.5h-347.136zm409.583 105.746h-472v-24.138c0-13.293 10.849-24.108 24.185-24.108h423.601c13.352 0 24.214 10.815 24.214 24.108z" fill="#020288"/></g></svg>